<svg width="101" height="18" fill="none" xmlns="http://www.w3.org/2000/svg"><path fill-rule="evenodd" clip-rule="evenodd" d="M4.269 13.599V8.327h-.981l-1.914 5.212H0l2.061-5.571C1.08 7.368.44 6.29.44 4.253.442 1.438 1.915 0 3.682 0h1.766v13.599H4.269zm-.638-6.41h.638v-5.93H3.63c-.981 0-1.914.778-1.914 3.054 0 2.157.884 2.876 1.914 2.876zm13.2 5.211h.637s0 3.056-.049 3.056h-1.08v-1.857h-3.336v1.917h-1.08V12.4h.491c.687-2.036.785-5.032.785-7.548v-.838h3.631V12.4zm5.593-.598l.294 1.138c-.49.479-1.128.778-1.913.779-1.62 0-2.6-1.558-2.6-4.493 0-3.116.686-5.332 2.354-5.332 1.325 0 2.16 1.198 2.16 4.433v.839H19.43c0 2.156.49 3.294 1.472 3.294.687 0 1.227-.419 1.52-.659zM10.01 8.087V4.014h1.226v9.585H10.06V9.285H8.243V13.6H7.017V4.014h1.177v4.073h1.816zM28.557 13.6h-1.325l-2.011-4.793V13.6h-1.227V4.014h1.227v4.433l1.864-4.433h1.227l-1.963 4.493 2.208 5.092zm4.466-.6c-.393.42-.884.72-1.62.72-1.668 0-2.699-1.618-2.748-4.853 0-2.995.982-4.912 2.797-4.912.687 0 1.08.24 1.423.48l-.147 1.377c-.294-.36-.785-.659-1.276-.659-.834 0-1.472 1.198-1.472 3.594s.442 3.774 1.423 3.774c.589 0 1.03-.3 1.325-.599L33.022 13zM13.591 12.4h2.11V5.212h-1.374v.18c0 2.036-.098 4.972-.736 7.008zm7.9-4.492c0-1.618-.246-2.816-.933-2.816-.736 0-1.03 1.138-1.08 2.816h2.012zm27.39 5.668h-1.723l-4.533-5.883h-1.613v5.883h-1.36V1.231h1.36v5.34h1.74l3.989-5.286h1.631l-4.441 5.829 4.95 6.462zm8.393 0h-1.233v-1.249c-.35.483-.78.863-1.287 1.14a3.544 3.544 0 01-1.668.399c-.81 0-1.535-.193-2.176-.58a4.037 4.037 0 01-1.504-1.61c-.363-.688-.544-1.473-.544-2.354 0-.869.175-1.64.525-2.317a4.079 4.079 0 011.487-1.61c.64-.387 1.366-.58 2.176-.58.616 0 1.178.139 1.686.416.52.266.955.646 1.305 1.14V5.106h1.233v8.471zm-4.224-.833c.58 0 1.093-.144 1.54-.434.46-.29.817-.694 1.07-1.213.254-.519.381-1.104.381-1.756 0-.651-.127-1.237-.38-1.755a2.908 2.908 0 00-1.07-1.213 2.772 2.772 0 00-1.541-.435 2.74 2.74 0 00-1.523.435c-.447.29-.798.694-1.052 1.213-.254.506-.38 1.086-.38 1.737 0 .664.126 1.255.38 1.774.254.52.605.923 1.052 1.213.447.29.955.434 1.523.434zm13.226-7.638h-7.143v8.471h1.233v-7.35h4.678v7.35h1.232V5.105zm5.551 8.76c-.822 0-1.553-.192-2.193-.579a4.037 4.037 0 01-1.505-1.61c-.363-.688-.544-1.467-.544-2.336 0-.869.175-1.647.526-2.335a4.036 4.036 0 011.505-1.61c.64-.387 1.365-.58 2.175-.58.69 0 1.287.15 1.795.453.52.29.991.705 1.414 1.249l-.906.705c-.593-.856-1.36-1.285-2.303-1.285a2.83 2.83 0 00-1.54.435c-.448.29-.799.694-1.052 1.213-.254.518-.381 1.104-.381 1.755 0 .652.127 1.237.38 1.756.254.52.605.923 1.052 1.213.46.29.973.434 1.541.434.58 0 1.058-.096 1.432-.29.375-.204.713-.5 1.016-.886l.96.67a4.514 4.514 0 01-1.486 1.194c-.58.29-1.209.435-1.886.435zm11.414-8.76h-1.16l-2.701 7.023-2.81-7.023h-1.288l3.481 8.634-1.341 3.457h1.233l4.586-12.091zm-.086 7.349h.562c.507 0 .906-.44 1.196-1.322.29-.893.435-2.244.435-4.054V5.105h5.584v8.471h-1.232v-7.35H86.51v1.196c0 1.882-.212 3.379-.635 4.489-.41 1.11-1.148 1.665-2.212 1.665h-.507v-1.122zm16.111 1.122h1.233V5.105h-1.233v1.267a3.58 3.58 0 00-1.305-1.14 3.457 3.457 0 00-1.686-.417c-.81 0-1.535.193-2.176.58a4.079 4.079 0 00-1.486 1.61c-.35.676-.526 1.448-.526 2.317 0 .881.181 1.666.544 2.354a4.036 4.036 0 001.504 1.61c.641.387 1.366.58 2.176.58.605 0 1.16-.133 1.668-.399a3.872 3.872 0 001.287-1.14v1.25zm-1.45-1.267c-.447.29-.961.434-1.541.434a2.74 2.74 0 01-1.523-.434 2.953 2.953 0 01-1.052-1.213c-.253-.519-.38-1.11-.38-1.774 0-.651.127-1.23.38-1.737a2.953 2.953 0 011.052-1.213 2.74 2.74 0 011.523-.435c.58 0 1.094.145 1.54.435.46.29.817.694 1.07 1.213.254.518.381 1.104.381 1.755 0 .652-.127 1.237-.38 1.756-.254.52-.61.923-1.07 1.213z" fill="#fff"/></svg>